<svg width="128" height="128" viewBox="0 0 128 128" xmlns="http://www.w3.org/2000/svg">
  <!-- Background circle -->
  <circle cx="64" cy="64" r="60" fill="#fffaf3" stroke="#e0d6c6" stroke-width="4"></circle>

  <!-- Storage box -->
  <rect x="34" y="54" width="60" height="40" rx="10" ry="10" fill="#FFD54F" stroke="#F9A825" stroke-width="2"></rect>

  <!-- Inner box lid (shadow edge) -->
  <line x1="34" y1="62" x2="94" y2="62" stroke="#FBC02D" stroke-width="2"></line>

  <!-- Cloud cap -->
  <path d="M44 54
           Q40 46, 48 42
           Q52 35, 60 42
           Q70 36, 76 44
           Q84 42, 88 48
           Q94 52, 88 54
           Z" fill="#0D47A1"></path>

  <!-- Cloud shine highlight -->
  <path d="M56 44 Q60 38 66 42" fill="white" opacity="0.3"></path>

  <!-- Eyes -->
  <circle cx="50" cy="72" r="4" fill="#333"></circle>
  <circle cx="78" cy="72" r="4" fill="#333"></circle>

  <!-- Smile -->
  <path d="M50 82 Q64 92 78 82" stroke="#333" stroke-width="3" fill="none" stroke-linecap="round"></path>

  <!-- Sparkle accent -->
  <polygon points="100,34 102,38 106,38 103,41 105,45 100,42 95,45 97,41 94,38 98,38" fill="#FFD700"></polygon>

</svg>
